{"title":"The.Angry.Birds.Movie.2016.720P.TC.Unmarked.Masteredition.x264.H","uid":14702829,"size":3141951131,"categoryP":"video","categoryS":"movies","magnet":"?xt=urn:btih:4110fd1700ac4d365aa4747f9771b0f10be3bb06&amp;dn=The.Angry.Birds.Movie.2016.720P.TC.Unmarked.Masteredition.x264.H&amp;tr=udp%3A%2F%2Ftracker.leechers-paradise.org%3A6969&amp;tr=udp%3A%2F%2Fzer0day.ch%3A1337&amp;tr=udp%3A%2F%2Fopen.demonii.com%3A1337&amp;tr=udp%3A%2F%2Ftracker.coppersurfer.tk%3A6969&amp;tr=udp%3A%2F%2Fexodus.desync.com%3A6969","seeders":4,"leechers":5,"uploader":"makintos13","files":3,"time":1464325146,"description":"The.Angry.Birds.Movie.2016.720P.TC.Unmarked.Masteredition.x264.Hive-CM8\r\n\r\nScreens:\r\n \nhttps://imgmak.com/T0r\r\n \nhttps://imgmak.com/T0B\r\n \nhttps://imgmak.com/T0I\r\n \nhttps://imgmak.com/T0q\r\n \nhttps://imgmak.com/T0t\r\n \nhttps://imgmak.com/T02\r\n \nhttps://imgmak.com/T0F\r\n \nhttps://imgmak.com/T0i\r\n\r\n\r\nCM8 Doing It Right The First Time\r\n\r\nSources:\r\n\r\nVideo: Unmarked 720p Chinese Telecine\r\nAudio: Direct Line (CPG/Exclusive)\r\nthx\r\n\r\n\r\nNotes:\r\nAnother special Encode and first on the net completely unmarked,\r\ntried to get a source file that doesnt have watermarkings, took me a day longer to get, but the result is excellent,\r\nits a masterpiece from this source. Have done 720p and avi for this,looks and sounds perfect a real cinemafeeling.\r\nQuality is tested and optimized to look perfect on a 85&quot; 4K TV.\r\n\r\n\r\nEncode:\r\nThe Chinese telecine needed some work,added brightness,contrast,and fixed colours.\r\nNothing is cut from the movie\r\n\r\nLine Audio as usually from cpg, was great, fixed Monosourround to stereo,added some depth and bass, sounds very nice now\r\nlipsynced to my video\r\n\r\ngot very nice and will do me till retail\r\nenjoy\r\n\r\nPS: waiting for better vid for xmen,portuguese is bad,russian is good but too dark, both incomplete too,not sure yet\r\nperhaps the chinese come through, lets wait and see\r\n\r\nVideo: 1280x704 @bitrate 4000-8000\r\nAudio: Line AC3 2.0 Stereo\r\nSample: yes included\r\n\r\n \nhttp://www.imdb.com/title/tt1985949/\r\n\r\n\r\nGeneral\r\nComplete name : The.Angry.Birds.Movie.2016.720P.TC.Unmarked.Masteredition.x264.Hive-CM8.mkv\r\nFormat : Matroska\r\nFormat version : Version 2\r\nFile size : 2.87 GiB\r\nDuration : 1h 36mn\r\nOverall bit rate mode : Variable\r\nOverall bit rate : 4 252 Kbps\r\nEncoded date : UTC 2016-05-26 11:34:13\r\nWriting application : mkvmerge v5.6.0 ('Kenya Kane') built on May 27 2012 16:44:04\r\nWriting library : libebml v1.2.3 + libmatroska v1.3.0\r\n\r\nVideo\r\nID : 1\r\nFormat : AVC\r\nFormat/Info : Advanced Video Codec\r\nFormat profile :   \r\nFormat settings, CABAC : Yes\r\nFormat settings, ReFrames : 4 frames\r\nMuxing mode : Header stripping\r\nCodec ID : V_MPEG4/ISO/AVC\r\nDuration : 1h 36mn\r\nBit rate mode : Variable\r\nBit rate : 3 911 Kbps\r\nMaximum bit rate : 8 000 Kbps\r\nWidth : 1 280 pixels\r\nHeight : 704 pixels\r\nDisplay aspect ratio : 16:9\r\nFrame rate mode : Constant\r\nFrame rate : 29.970 fps\r\nStandard : NTSC\r\nColor space : YUV\r\nChroma subsampling : 4:2:0\r\nBit depth : 8 bits\r\nScan type : Progressive\r\nBits/(Pixel*Frame) : 0.145\r\nStream size : 2.64 GiB (92%)\r\nLanguage : English\r\nDefault : Yes\r\nForced : No\r\nColor primaries : BT.709\r\nTransfer characteristics : BT.709\r\nMatrix coefficients : BT.709\r\nColor range : Limited\r\n\r\nAudio\r\nID : 2\r\nFormat : AC-3\r\nFormat/Info : Audio Coding 3\r\nMode extension : CM (complete main)\r\nFormat settings, Endianness : Big\r\nMuxing mode : Header stripping\r\nCodec ID : A_AC3\r\nDuration : 1h 36mn\r\nBit rate mode : Constant\r\nBit rate : 256 Kbps\r\nChannel(s) : 2 channels\r\nChannel positions : Front: L R\r\nSampling rate : 48.0 KHz\r\nBit depth : 16 bits\r\nCompression mode : Lossy\r\nDelay relative to video : 26ms\r\nStream size : 177 MiB (6%)\r\nLanguage : English\r\nDefault : Yes\r\nForced : No\r\n\r\nFind out why the birds are so angry. When an island populated by happy, flightless birds is visited by mysterious green piggies, it's up to three unlikely outcasts - Red, Chuck and Bomb - to figure out what the pigs are up to.\r\n\r\n\r\nCast overview, first billed only:\r\n\r\nJason Sudeikis\t...\tRed (voice)\r\nJosh Gad\t...\tChuck (voice)\r\nDanny McBride\t...\tBomb (voice)\r\nMaya Rudolph\t...\tMatilda (voice)\r\nBill Hader\t...\tLeonard (voice)\r\nPeter Dinklage\t...\tMighty Eagle (voice)\r\nSean Penn\t...\tTerence (voice)\r\nKeegan-Michael Key ...\tJudge Peckinpah (voice)\r\nKate McKinnon\t...\tStella / Eva the Birthday Mom (voice)\r\nTony Hale\t...\tRoss / Cyrus / Mime (voice)\r\nHannibal Buress\t...\tEdward the Birthday Dad (voice)\r\nIke Barinholtz\t...\tTiny (voice)\r\nTituss Burgess\t...\tPhotog (voice)\r\nIan Hecox\t...\tBubbles (voice)\r\nAnthony Padilla\t...\tHal (voice)\r\n\r\nLOOKING FOR ANYTHING YOU WANT TO LOOK AND SOUND BETTER\r\n\r\nCOME FIND US WE DONT BITE","torrent":{"xt":"urn:btih:4110fd1700ac4d365aa4747f9771b0f10be3bb06","amp;dn":"The.Angry.Birds.Movie.2016.720P.TC.Unmarked.Masteredition.x264.H","amp;tr":["udp%3A%2F%2Ftracker.leechers-paradise.org%3A6969","udp%3A%2F%2Fzer0day.ch%3A1337","udp%3A%2F%2Fopen.demonii.com%3A1337","udp%3A%2F%2Ftracker.coppersurfer.tk%3A6969","udp%3A%2F%2Fexodus.desync.com%3A6969"],"infoHash":"4110fd1700ac4d365aa4747f9771b0f10be3bb06","infoHashBuffer":{"type":"Buffer","data":[65,16,253,23,0,172,77,54,90,164,116,127,151,113,176,241,11,227,187,6]},"announce":[],"urlList":[]}}